<?xml version="1.0" encoding="utf-8"?>
<!-- Generator: Adobe Illustrator 24.2.2, SVG Export Plug-In . SVG Version: 6.00 Build 0)  -->
<svg version="1.1" id="Layer_1" xmlns="http://www.w3.org/2000/svg" xmlns:xlink="http://www.w3.org/1999/xlink" x="0px" y="0px"
	 viewBox="0 0 28.62 29.85" style="enable-background:new 0 0 28.62 29.85;" xml:space="preserve">
<style type="text/css">
	.st0{fill:#FFFFFF;stroke:#000000;stroke-width:0.5;stroke-miterlimit:10;}
	.st1{stroke:#000000;stroke-width:0.0864;stroke-miterlimit:10;}
	.st2{stroke:#000000;stroke-width:0.064;stroke-miterlimit:10;}
	.st3{fill:#FFFFFF;stroke:#000000;stroke-width:0.0864;stroke-miterlimit:10;}
</style>
<g>
	<path class="st0" d="M21.86,26.88H7.38c-2,0-3.64-1.64-3.64-3.64V6.78c0-2,1.64-3.64,3.64-3.64h14.47c2,0,3.64,1.64,3.64,3.64
		v16.46C25.5,25.24,23.86,26.88,21.86,26.88z"/>
	<polygon class="st1" points="17.67,21.73 18.9,12.1 10.35,12.1 11.58,21.73 	"/>
	<g>
		<rect x="9.02" y="8.64" transform="matrix(0.9542 -0.299 0.299 0.9542 -2.1554 4.5635)" class="st2" width="9.63" height="1.37"/>
		
			<rect x="12.36" y="8.01" transform="matrix(0.9542 -0.299 0.299 0.9542 -1.8771 4.4272)" class="st1" width="2.34" height="0.67"/>
	</g>
	<path class="st3" d="M14.62,20.09L14.62,20.09c-0.18,0-0.33-0.15-0.33-0.33v-5.7c0-0.18,0.15-0.33,0.33-0.33h0
		c0.18,0,0.33,0.15,0.33,0.33v5.7C14.95,19.95,14.8,20.09,14.62,20.09z"/>
	<path class="st3" d="M13.23,20.08L13.23,20.08c-0.18,0.02-0.34-0.12-0.35-0.3l-0.5-5.68c-0.02-0.18,0.12-0.34,0.3-0.35l0,0
		c0.18-0.02,0.34,0.12,0.35,0.3l0.5,5.68C13.54,19.91,13.41,20.07,13.23,20.08z"/>
	<path class="st3" d="M15.94,20.08L15.94,20.08c0.18,0.02,0.34-0.12,0.35-0.3l0.5-5.68c0.02-0.18-0.12-0.34-0.3-0.35l0,0
		c-0.18-0.02-0.34,0.12-0.35,0.3l-0.5,5.68C15.63,19.91,15.76,20.07,15.94,20.08z"/>
</g>
</svg>
