<?xml version="1.0" encoding="utf-8"?>
<!-- Generator: Adobe Illustrator 24.0.2, SVG Export Plug-In . SVG Version: 6.00 Build 0)  -->
<svg version="1.1" id="Layer_1" xmlns="http://www.w3.org/2000/svg" xmlns:xlink="http://www.w3.org/1999/xlink" x="0px" y="0px"
	 viewBox="0 0 221.58 101.46" style="enable-background:new 0 0 221.58 101.46;" xml:space="preserve">
<style type="text/css">
	.Arched_x0020_Green{fill:url(#SVGID_1_);stroke:#FFFFFF;stroke-width:0.25;stroke-miterlimit:1;}
	.st0{fill:#5C82A0;}
	.st1{fill:#020202;}
	.st2{fill:none;stroke:#5C82A0;stroke-width:0.75;stroke-linecap:round;}
</style>
<linearGradient id="SVGID_1_" gradientUnits="userSpaceOnUse" x1="-18.2684" y1="1702.2418" x2="-17.5613" y2="1701.5347">
	<stop  offset="0" style="stop-color:#20AC4B"/>
	<stop  offset="0.9831" style="stop-color:#19361A"/>
</linearGradient>
<path class="st0" d="M44.05-17.54c0-0.55,0-1,0-1S44.05-18.09,44.05-17.54c0,0.55,0,1,0,1S44.05-16.99,44.05-17.54z"/>
<g>
	<path class="st0" d="M96.1,91.98V72.94h-3.47v-2.9h3.47v-2.25c0-2.35,0.63-4.17,1.89-5.45c1.26-1.28,3.03-1.93,5.33-1.93
		c0.87,0,1.72,0.11,2.58,0.34l-0.2,3.02c-0.64-0.12-1.31-0.18-2.03-0.18c-1.22,0-2.16,0.36-2.82,1.07
		c-0.66,0.71-0.99,1.73-0.99,3.06v2.32h4.68v2.9h-4.68v19.04H96.1z"/>
	<path class="st0" d="M122.22,89.82c-1.46,1.72-3.6,2.58-6.43,2.58c-2.34,0-4.12-0.68-5.34-2.04s-1.84-3.37-1.85-6.03V70.05h3.75
		v14.17c0,3.33,1.35,4.99,4.06,4.99c2.87,0,4.77-1.07,5.72-3.2V70.05h3.75v21.94h-3.57L122.22,89.82z"/>
	<path class="st0" d="M144.34,86.17c0-1.01-0.38-1.8-1.15-2.36s-2.1-1.04-3.99-1.45c-1.9-0.41-3.41-0.89-4.52-1.46
		s-1.94-1.24-2.47-2.03c-0.53-0.78-0.8-1.72-0.8-2.8c0-1.8,0.76-3.32,2.28-4.56c1.52-1.24,3.46-1.87,5.83-1.87
		c2.49,0,4.5,0.64,6.05,1.93c1.55,1.28,2.32,2.93,2.32,4.93h-3.77c0-1.03-0.44-1.91-1.31-2.66c-0.87-0.74-1.97-1.12-3.29-1.12
		c-1.37,0-2.43,0.3-3.2,0.89s-1.16,1.37-1.16,2.33c0,0.91,0.36,1.59,1.07,2.05c0.72,0.46,2.01,0.9,3.88,1.32s3.39,0.92,4.55,1.5
		s2.02,1.28,2.59,2.1c0.56,0.82,0.84,1.81,0.84,2.99c0,1.96-0.78,3.53-2.35,4.71c-1.57,1.18-3.6,1.77-6.1,1.77
		c-1.76,0-3.31-0.31-4.66-0.93s-2.41-1.49-3.17-2.61s-1.15-2.32-1.15-3.62h3.75c0.07,1.26,0.57,2.25,1.51,2.99s2.18,1.1,3.72,1.1
		c1.42,0,2.56-0.29,3.42-0.86C143.91,87.89,144.34,87.13,144.34,86.17z"/>
	<path class="st0" d="M153,64.23c0-0.61,0.19-1.12,0.56-1.54s0.92-0.63,1.65-0.63s1.28,0.21,1.66,0.63s0.57,0.93,0.57,1.54
		c0,0.61-0.19,1.12-0.57,1.52c-0.38,0.41-0.93,0.61-1.66,0.61s-1.28-0.2-1.65-0.61C153.18,65.34,153,64.83,153,64.23z M157.05,91.98
		h-3.75V70.05h3.75V91.98z"/>
	<path class="st0" d="M162.06,80.81c0-2.15,0.42-4.08,1.27-5.8s2.02-3.04,3.53-3.97c1.51-0.93,3.23-1.4,5.16-1.4
		c2.99,0,5.4,1.03,7.25,3.1c1.84,2.07,2.77,4.82,2.77,8.25v0.26c0,2.14-0.41,4.05-1.23,5.75c-0.82,1.7-1.99,3.02-3.51,3.96
		c-1.52,0.95-3.27,1.42-5.24,1.42c-2.97,0-5.38-1.03-7.23-3.1s-2.77-4.81-2.77-8.21V80.81z M165.83,81.26
		c0,2.43,0.56,4.39,1.69,5.86c1.13,1.47,2.64,2.21,4.53,2.21c1.91,0,3.42-0.75,4.54-2.24c1.12-1.49,1.68-3.59,1.68-6.28
		c0-2.41-0.57-4.36-1.71-5.85c-1.14-1.49-2.66-2.24-4.55-2.24c-1.85,0-3.35,0.74-4.48,2.21C166.4,76.41,165.83,78.51,165.83,81.26z"
		/>
	<path class="st0" d="M190.29,70.05l0.12,2.76c1.68-2.11,3.87-3.16,6.57-3.16c4.64,0,6.98,2.62,7.02,7.85v14.5h-3.75V77.47
		c-0.01-1.58-0.38-2.75-1.08-3.51c-0.71-0.76-1.81-1.14-3.32-1.14c-1.22,0-2.28,0.32-3.2,0.97c-0.92,0.65-1.64,1.5-2.15,2.56v15.63
		h-3.75V70.05H190.29z"/>
</g>
<g>
	<path class="st0" d="M57.54,87.42l1.18-11.81L47.74,87.76c0,0,4.42-3.48,5.99-3.97C56.03,83.07,57.54,87.42,57.54,87.42z"/>
	<path class="st0" d="M67.63,91.55l-7.52-9.19l0.83,16.36c0,0,0.67-5.58,1.43-7.04C63.49,89.54,67.63,91.55,67.63,91.55z"/>
	<path class="st0" d="M77.66,87.29l-11.81-1.18L78,97.09c0,0-3.48-4.42-3.97-5.99C73.31,88.8,77.66,87.29,77.66,87.29z"/>
	<path class="st0" d="M81.81,77.21l-9.19,7.52l16.36-0.83c0,0-5.58-0.67-7.04-1.43C79.8,81.36,81.81,77.21,81.81,77.21z"/>
	<path class="st0" d="M77.55,67.15l-1.18,11.81l10.98-12.15c0,0-4.42,3.48-5.99,3.97C79.06,71.51,77.55,67.15,77.55,67.15z"/>
	<path class="st0" d="M67.44,62.97l7.52,9.19L74.13,55.8c0,0-0.67,5.58-1.43,7.04C71.59,64.98,67.44,62.97,67.44,62.97z"/>
	<path class="st0" d="M57.33,67.24l11.81,1.18L56.99,57.44c0,0,3.48,4.42,3.97,5.99C61.68,65.73,57.33,67.24,57.33,67.24z"/>
	<path class="st0" d="M53.25,77.39l9.19-7.52L46.08,70.7c0,0,5.58,0.67,7.04,1.43C55.26,73.25,53.25,77.39,53.25,77.39z"/>
</g>
<g>
	<path class="st1" d="M31.29,33.62l4.33,1.14c-0.91,3.69-2.54,6.51-4.9,8.45c-2.36,1.94-5.24,2.91-8.65,2.91
		c-3.53,0-6.39-0.75-8.6-2.24s-3.89-3.65-5.04-6.48c-1.15-2.83-1.73-5.86-1.73-9.11c0-3.54,0.65-6.62,1.95-9.26
		c1.3-2.63,3.15-4.63,5.56-6c2.4-1.37,5.05-2.05,7.93-2.05c3.27,0,6.03,0.87,8.26,2.6c2.23,1.73,3.79,4.16,4.66,7.3l-4.26,1.04
		c-0.76-2.47-1.86-4.27-3.3-5.4c-1.44-1.13-3.26-1.69-5.45-1.69c-2.51,0-4.62,0.63-6.3,1.88c-1.69,1.25-2.88,2.93-3.56,5.04
		c-0.68,2.11-1.03,4.28-1.03,6.52c0,2.89,0.41,5.41,1.22,7.57c0.81,2.16,2.07,3.77,3.78,4.83c1.71,1.07,3.56,1.6,5.56,1.6
		c2.43,0,4.48-0.73,6.16-2.18C29.56,38.63,30.7,36.48,31.29,33.62z"/>
	<path class="st1" d="M40.36,45.53V11.56h4.02v33.97H40.36z"/>
	<path class="st1" d="M66.83,37.6l4.15,0.53c-0.66,2.52-1.87,4.47-3.64,5.86c-1.77,1.39-4.03,2.09-6.78,2.09
		c-3.47,0-6.22-1.11-8.25-3.33c-2.03-2.22-3.05-5.33-3.05-9.33c0-4.14,1.03-7.35,3.08-9.64c2.05-2.29,4.72-3.43,7.99-3.43
		c3.17,0,5.76,1.12,7.77,3.36c2.01,2.24,3.01,5.39,3.01,9.45c0,0.25-0.01,0.62-0.02,1.11H53.41c0.15,2.7,0.88,4.77,2.21,6.21
		c1.32,1.44,2.98,2.16,4.95,2.16c1.47,0,2.73-0.4,3.77-1.21C65.39,40.65,66.21,39.37,66.83,37.6z M53.64,30.86h13.23
		c-0.18-2.07-0.68-3.62-1.52-4.66c-1.28-1.61-2.94-2.41-4.98-2.41c-1.84,0-3.4,0.64-4.65,1.92C54.46,27,53.77,28.71,53.64,30.86z"/>
	<path class="st1" d="M91.49,42.49c-1.49,1.31-2.92,2.24-4.3,2.78c-1.38,0.54-2.85,0.81-4.43,0.81c-2.6,0-4.6-0.66-6-1.98
		c-1.4-1.32-2.1-3.01-2.1-5.06c0-1.2,0.26-2.31,0.79-3.3c0.53-1,1.22-1.8,2.08-2.4c0.86-0.6,1.82-1.06,2.89-1.37
		c0.79-0.22,1.98-0.42,3.57-0.63c3.24-0.4,5.63-0.88,7.16-1.44c0.01-0.57,0.02-0.93,0.02-1.09c0-1.7-0.38-2.9-1.14-3.59
		c-1.03-0.94-2.55-1.41-4.58-1.41c-1.89,0-3.28,0.34-4.18,1.03c-0.9,0.69-1.57,1.9-2,3.65l-3.93-0.56c0.36-1.75,0.94-3.15,1.76-4.23
		c0.82-1.07,2-1.9,3.55-2.48c1.55-0.58,3.34-0.87,5.38-0.87c2.02,0,3.67,0.25,4.93,0.74c1.26,0.49,2.19,1.12,2.79,1.87
		c0.59,0.75,1.01,1.7,1.25,2.84c0.13,0.71,0.2,1.99,0.2,3.85v5.56c0,3.88,0.09,6.33,0.26,7.36c0.17,1.03,0.51,2.01,1.02,2.95h-4.2
		C91.87,44.66,91.61,43.65,91.49,42.49z M91.15,33.18c-1.46,0.62-3.65,1.14-6.56,1.58c-1.65,0.25-2.82,0.53-3.5,0.83
		c-0.68,0.31-1.21,0.76-1.58,1.36c-0.37,0.6-0.56,1.26-0.56,1.98c0,1.11,0.41,2.04,1.22,2.78c0.81,0.74,2,1.11,3.56,1.11
		c1.55,0,2.92-0.35,4.13-1.05c1.21-0.7,2.09-1.66,2.66-2.89c0.43-0.94,0.65-2.33,0.65-4.17V33.18z"/>
	<path class="st1" d="M101.4,45.53V20.92h3.62v3.73c0.92-1.75,1.77-2.9,2.56-3.45s1.64-0.83,2.58-0.83c1.35,0,2.73,0.45,4.13,1.34
		l-1.38,3.87c-0.98-0.6-1.96-0.9-2.95-0.9c-0.88,0-1.67,0.27-2.37,0.82c-0.7,0.55-1.2,1.31-1.5,2.28c-0.45,1.48-0.67,3.11-0.67,4.87
		v12.88H101.4z"/>
	<path class="st1" d="M116.57,45.53V11.56h4.02v33.97H116.57z"/>
	<path class="st1" d="M126.84,16.35v-4.8h4.02v4.8H126.84z M126.84,45.53V20.92h4.02v24.61H126.84z"/>
	<path class="st1" d="M136.97,45.53V20.92h3.62v3.5c1.74-2.7,4.26-4.06,7.54-4.06c1.43,0,2.74,0.27,3.94,0.8
		c1.2,0.53,2.09,1.23,2.69,2.1s1.01,1.89,1.25,3.08c0.15,0.77,0.22,2.12,0.22,4.06v15.13h-4.02V30.56c0-1.7-0.16-2.97-0.47-3.81
		c-0.31-0.84-0.87-1.51-1.66-2.02c-0.8-0.5-1.73-0.75-2.8-0.75c-1.71,0-3.19,0.56-4.43,1.69c-1.24,1.13-1.86,3.27-1.86,6.42v13.44
		H136.97z"/>
	<path class="st1" d="M178.62,37.6l4.15,0.53c-0.66,2.52-1.87,4.47-3.64,5.86c-1.77,1.39-4.03,2.09-6.78,2.09
		c-3.47,0-6.22-1.11-8.25-3.33c-2.03-2.22-3.05-5.33-3.05-9.33c0-4.14,1.03-7.35,3.08-9.64c2.05-2.29,4.72-3.43,7.99-3.43
		c3.17,0,5.76,1.12,7.77,3.36c2.01,2.24,3.01,5.39,3.01,9.45c0,0.25-0.01,0.62-0.02,1.11H165.2c0.15,2.7,0.88,4.77,2.21,6.21
		c1.32,1.44,2.98,2.16,4.95,2.16c1.47,0,2.73-0.4,3.77-1.21C177.18,40.65,178.01,39.37,178.62,37.6z M165.43,30.86h13.23
		c-0.18-2.07-0.68-3.62-1.52-4.66c-1.28-1.61-2.94-2.41-4.98-2.41c-1.84,0-3.4,0.64-4.65,1.92C166.26,27,165.56,28.71,165.43,30.86z
		"/>
</g>
<line class="st2" x1="7.69" y1="51.51" x2="209.62" y2="51.51"/>
</svg>
