<?xml version="1.0" encoding="utf-8"?>
<!-- Generator: Adobe Illustrator 24.2.2, SVG Export Plug-In . SVG Version: 6.00 Build 0)  -->
<svg version="1.1" id="Layer_1" xmlns="http://www.w3.org/2000/svg" xmlns:xlink="http://www.w3.org/1999/xlink" x="0px" y="0px"
	 viewBox="0 0 28.62 29.85" style="enable-background:new 0 0 28.62 29.85;" xml:space="preserve">
<style type="text/css">
	.st0{fill:#FFFFFF;stroke:#000000;stroke-width:0.5;stroke-miterlimit:10;}
	.st1{fill:#FFFFFF;stroke:#000000;stroke-miterlimit:10;}
	.st2{fill:#FFFFFF;stroke:#000000;stroke-width:1.2;stroke-linecap:round;stroke-miterlimit:10;}
</style>
<path class="st0" d="M21.86,26.88H7.38c-2,0-3.64-1.64-3.64-3.64V6.78c0-2,1.64-3.64,3.64-3.64h14.47c2,0,3.64,1.64,3.64,3.64v16.46
	C25.5,25.24,23.86,26.88,21.86,26.88z"/>
<path class="st1" d="M19.47,22.79h-9.7c-0.58,0-1.04-0.47-1.04-1.04V8.89c0-0.58,0.47-1.04,1.04-1.04h9.7
	c0.58,0,1.04,0.47,1.04,1.04v12.86C20.51,22.33,20.05,22.79,19.47,22.79z"/>
<path class="st0" d="M18.06,6.7v2.78h-6.88V6.7h1.87c0-0.74,0.6-1.34,1.34-1.34s1.34,0.6,1.34,1.34H18.06z"/>
<circle class="st0" cx="19.84" cy="21.22" r="3.32"/>
<line class="st2" x1="17.85" y1="21.19" x2="21.92" y2="21.19"/>
<line class="st2" x1="19.89" y1="19.18" x2="19.89" y2="23.23"/>
</svg>
