<?xml version="1.0" encoding="utf-8"?>
<!-- Generator: Adobe Illustrator 24.3.0, SVG Export Plug-In . SVG Version: 6.00 Build 0)  -->
<svg version="1.1" xmlns="http://www.w3.org/2000/svg" xmlns:xlink="http://www.w3.org/1999/xlink" x="0px" y="0px"
	 viewBox="0 0 13.2 12.4" style="enable-background:new 0 0 13.2 12.4;" xml:space="preserve">
<style type="text/css">
	.st0{fill:none;stroke:#000000;stroke-width:0.5;stroke-miterlimit:10;}
	.st1{fill:none;stroke:#000000;stroke-width:0.25;stroke-miterlimit:10;}
	.st2{fill:none;stroke:#000000;stroke-width:0.3857;stroke-miterlimit:10;}
	.st3{fill:none;stroke:#E30613;stroke-miterlimit:10;}
</style>
<g id="Layer_1">
</g>
<g id="Layer_2">
	<path class="st0" d="M6.8,1.1"/>
	<line class="st1" x1="5.3" y1="9.4" x2="5.3" y2="11.3"/>
	<path d="M3.3,9.4c0,0,0,1.8,0,1.7s1.8-0.8,1.8-0.8L3.3,9.4z"/>
	<line class="st2" x1="3.7" y1="10.3" x2="1.5" y2="10.3"/>
	<line class="st1" x1="8.1" y1="9.4" x2="8.1" y2="11.3"/>
	<path d="M10.1,9.4c0,0,0,1.8,0,1.7s-1.8-0.8-1.8-0.8L10.1,9.4z"/>
	<line class="st2" x1="9.7" y1="10.3" x2="11.9" y2="10.3"/>
	<path class="st3" d="M3.1,8.4h7.2c0.5,0,0.9-0.6,0.6-1.1L7.3,1.7C7,1.3,6.4,1.3,6.1,1.7L2.5,7.3C2.2,7.8,2.6,8.4,3.1,8.4z"/>
	<path d="M6.9,6H6.5C6.4,6,6.3,5.9,6.3,5.8L6,3.7c0-0.1,0.1-0.2,0.2-0.2h0.9c0.2,0,0.3,0.1,0.2,0.2L7.1,5.8C7.1,5.9,7,6,6.9,6z"/>
	<circle cx="6.7" cy="6.8" r="0.6"/>
</g>
</svg>
