<?xml version="1.0" encoding="utf-8"?>
<!-- Generator: Adobe Illustrator 24.0.2, SVG Export Plug-In . SVG Version: 6.00 Build 0)  -->
<svg version="1.1" xmlns="http://www.w3.org/2000/svg" xmlns:xlink="http://www.w3.org/1999/xlink" x="0px" y="0px"
	 viewBox="0 0 28.62 29.85" style="enable-background:new 0 0 28.62 29.85;" xml:space="preserve">
<style type="text/css">
	.st0{fill:#FFFFFF;stroke:#000000;stroke-width:0.5;stroke-miterlimit:10;}
	.st1{fill:#EDEDED;stroke:#000000;stroke-width:0.4432;stroke-miterlimit:10;}
	.st2{fill:#EDEDED;stroke:#000000;stroke-width:0.4432;stroke-linejoin:bevel;stroke-miterlimit:10;}
	.st3{stroke:#000000;stroke-width:0.3456;stroke-miterlimit:10;}
</style>
<g id="Layer_1">
</g>
<g id="Layer_2">
	<path class="st0" d="M21.86,27H7.39c-2,0-3.64-1.64-3.64-3.64V6.9c0-2,1.64-3.64,3.64-3.64h14.47c2,0,3.64,1.64,3.64,3.64v16.46
		C25.5,25.36,23.86,27,21.86,27z"/>
	<polyline class="st1" points="20.75,12.32 20.75,23.02 8.49,23.02 8.49,6.18 14.62,6.18 	"/>
	<path class="st2" d="M20.75,12.32h-4.42c-0.94,0-1.71-0.77-1.71-1.71V6.18L20.75,12.32z"/>
	<g>
		<path d="M11.52,16.77l0.76-1.16l-0.69-1.06h0.52l0.45,0.71l0.44-0.71h0.52l-0.69,1.08l0.76,1.14h-0.54L12.55,16l-0.49,0.77H11.52z
			"/>
		<path d="M13.83,16.77v-2.2h0.45v1.83h1.11v0.37H13.83z"/>
		<path d="M15.59,16.04L16.03,16c0.03,0.15,0.08,0.25,0.16,0.32c0.08,0.07,0.19,0.1,0.33,0.1c0.14,0,0.25-0.03,0.33-0.09
			c0.07-0.06,0.11-0.13,0.11-0.21c0-0.05-0.02-0.1-0.05-0.13c-0.03-0.04-0.08-0.07-0.16-0.1c-0.05-0.02-0.17-0.05-0.36-0.1
			c-0.24-0.06-0.41-0.13-0.51-0.22c-0.14-0.12-0.2-0.27-0.2-0.45c0-0.11,0.03-0.22,0.1-0.32c0.06-0.1,0.16-0.17,0.28-0.22
			s0.27-0.08,0.44-0.08c0.28,0,0.49,0.06,0.63,0.18c0.14,0.12,0.21,0.29,0.22,0.49l-0.45,0.02c-0.02-0.11-0.06-0.2-0.12-0.25
			c-0.06-0.05-0.16-0.08-0.28-0.08c-0.13,0-0.23,0.03-0.31,0.08c-0.05,0.03-0.07,0.08-0.07,0.14c0,0.05,0.02,0.1,0.07,0.13
			c0.06,0.05,0.19,0.1,0.41,0.15c0.22,0.05,0.38,0.1,0.48,0.16c0.1,0.06,0.19,0.13,0.25,0.23c0.06,0.1,0.09,0.21,0.09,0.35
			c0,0.13-0.04,0.25-0.11,0.36c-0.07,0.11-0.17,0.19-0.3,0.25c-0.13,0.05-0.29,0.08-0.48,0.08c-0.28,0-0.5-0.06-0.65-0.19
			S15.62,16.29,15.59,16.04z"/>
	</g>
	<polygon class="st3" points="5.16,10.19 7.45,10.19 7.45,11.3 10.93,9.25 7.45,7.2 7.45,8.31 5.16,8.31 	"/>
</g>
</svg>
