<?xml version="1.0" encoding="utf-8"?>
<!-- Generator: Adobe Illustrator 24.0.2, SVG Export Plug-In . SVG Version: 6.00 Build 0)  -->
<svg version="1.1" xmlns="http://www.w3.org/2000/svg" xmlns:xlink="http://www.w3.org/1999/xlink" x="0px" y="0px"
	 viewBox="0 0 28.62 29.85" style="enable-background:new 0 0 28.62 29.85;" xml:space="preserve">
<style type="text/css">
	.st0{fill:#FFFFFF;stroke:#000000;stroke-width:0.5;stroke-miterlimit:10;}
	.st1{fill:#EDEDED;stroke:#000000;stroke-width:0.4432;stroke-miterlimit:10;}
	.st2{fill:#EDEDED;stroke:#000000;stroke-width:0.4432;stroke-linejoin:bevel;stroke-miterlimit:10;}
	.st3{stroke:#000000;stroke-width:0.3456;stroke-miterlimit:10;}
</style>
<g id="Layer_1">
</g>
<g id="Layer_2">
	<path class="st0" d="M21.86,27H7.38c-2,0-3.64-1.64-3.64-3.64V6.9c0-2,1.64-3.64,3.64-3.64h14.47c2,0,3.64,1.64,3.64,3.64v16.46
		C25.5,25.36,23.86,27,21.86,27z"/>
	<polyline class="st1" points="21.64,12.32 21.64,23.02 9.38,23.02 9.38,6.18 15.51,6.18 	"/>
	<path class="st2" d="M21.64,12.32h-4.42c-0.94,0-1.71-0.77-1.71-1.71V6.18L21.64,12.32z"/>
	<g>
		<path d="M12.36,16.32V14.1h0.72c0.27,0,0.45,0.01,0.53,0.03c0.13,0.03,0.23,0.11,0.32,0.22c0.09,0.11,0.13,0.26,0.13,0.43
			c0,0.14-0.02,0.25-0.07,0.34c-0.05,0.09-0.11,0.17-0.19,0.22c-0.08,0.05-0.15,0.09-0.23,0.11c-0.11,0.02-0.26,0.03-0.46,0.03
			h-0.29v0.84H12.36z M12.81,14.48v0.63h0.25c0.18,0,0.29-0.01,0.35-0.04s0.11-0.06,0.14-0.11c0.03-0.05,0.05-0.11,0.05-0.17
			c0-0.08-0.02-0.15-0.07-0.2s-0.11-0.09-0.18-0.1c-0.05-0.01-0.16-0.02-0.32-0.02H12.81z"/>
		<path d="M14.43,14.1h0.82c0.18,0,0.33,0.01,0.42,0.04c0.13,0.04,0.24,0.11,0.33,0.21c0.09,0.1,0.16,0.22,0.21,0.36
			c0.05,0.14,0.07,0.32,0.07,0.53c0,0.18-0.02,0.34-0.07,0.47c-0.06,0.16-0.13,0.29-0.24,0.39c-0.08,0.08-0.18,0.13-0.32,0.18
			c-0.1,0.03-0.23,0.05-0.4,0.05h-0.84V14.1z M14.88,14.48v1.47h0.33c0.13,0,0.22-0.01,0.27-0.02c0.07-0.02,0.13-0.05,0.18-0.09
			c0.05-0.04,0.09-0.11,0.12-0.21s0.04-0.24,0.04-0.41c0-0.17-0.01-0.3-0.04-0.39c-0.03-0.09-0.07-0.16-0.13-0.22
			c-0.05-0.05-0.12-0.09-0.21-0.1c-0.06-0.01-0.19-0.02-0.37-0.02H14.88z"/>
		<path d="M16.67,16.32V14.1h1.52v0.38h-1.07V15h0.93v0.38h-0.93v0.94H16.67z"/>
	</g>
	<polygon class="st3" points="5.62,10.66 7.91,10.66 7.91,11.77 11.4,9.71 7.91,7.66 7.91,8.78 5.62,8.78 	"/>
</g>
</svg>
