<?xml version="1.0" encoding="utf-8"?>
<!-- Generator: Adobe Illustrator 24.2.2, SVG Export Plug-In . SVG Version: 6.00 Build 0)  -->
<svg version="1.1" xmlns="http://www.w3.org/2000/svg" xmlns:xlink="http://www.w3.org/1999/xlink" x="0px" y="0px"
	 viewBox="0 0 31.6 27.59" style="enable-background:new 0 0 31.6 27.59;" xml:space="preserve">
<style type="text/css">
	.st0{fill:#FFFFFF;stroke:#000000;stroke-width:0.7299;stroke-miterlimit:10;}
	.st1{fill:none;stroke:#000000;stroke-width:0.5;stroke-miterlimit:10;}
</style>
<g id="Layer_1">
</g>
<g id="Portrait_x2F_landscape">
	<g>
		<path class="st0" d="M19.49,6.44v14.22c0,2.53-2.07,4.6-4.6,4.6H7.07c-2.53,0-4.6-2.07-4.6-4.6V6.44c0-2.53,2.07-4.6,4.6-4.6h7.82
			C17.42,1.84,19.49,3.91,19.49,6.44z"/>
		<path d="M6.18,20.66v-3.39c0-2.65,0.87-4.78,2.85-4.78c0,0,0.74,0.64,1.87,0.64c1.09,0,1.73-0.67,1.73-0.67
			c2.21,0,2.98,2.17,2.98,4.82v3.39"/>
		<path d="M11.25,12.09h-0.73c-1.58,0-2.87-1.29-2.87-2.87V8.49c0-1.58,1.29-2.87,2.87-2.87h0.73c1.58,0,2.87,1.29,2.87,2.87v0.73
			C14.13,10.8,12.83,12.09,11.25,12.09z"/>
		<g>
			<path class="st1" d="M29.54,5.56"/>
			<path class="st1" d="M29.9,4.2"/>
			<path class="st1" d="M22.62,3.18h5.57c1.09,0,1.98,0.89,1.98,1.98v0"/>
			<path class="st1" d="M25.5,3.05"/>
			<line class="st1" x1="24.34" y1="4.2" x2="24.34" y2="4.2"/>
			<path class="st1" d="M29.55,7.49h-5.57c-1.09,0-1.98-0.89-1.98-1.98"/>
			<polyline class="st1" points="23.8,2.13 22.62,3.18 23.8,4.24 			"/>
			<polyline class="st1" points="28.38,6.43 29.55,7.49 28.38,8.54 			"/>
		</g>
	</g>
</g>
</svg>
