<?xml version="1.0" encoding="utf-8"?>
<!-- Generator: Adobe Illustrator 24.0.2, SVG Export Plug-In . SVG Version: 6.00 Build 0)  -->
<svg version="1.1" xmlns="http://www.w3.org/2000/svg" xmlns:xlink="http://www.w3.org/1999/xlink" x="0px" y="0px"
	 viewBox="0 0 8.26 12.39" style="enable-background:new 0 0 8.26 12.39;" xml:space="preserve">
<style type="text/css">
	.st0{stroke:#000000;stroke-width:0.0518;stroke-miterlimit:10;}
	.st1{stroke:#000000;stroke-width:0.0384;stroke-miterlimit:10;}
	.st2{fill:#C6C6C6;stroke:#000000;stroke-width:0.0518;stroke-miterlimit:10;}
</style>
<g id="Layer_1">
	<polygon class="st0" points="6.25,10.54 6.99,4.77 1.86,4.77 2.6,10.54 	"/>
	<g>
		<rect x="1.07" y="2.69" transform="matrix(0.9542 -0.299 0.299 0.9542 -0.7471 1.3239)" class="st1" width="5.77" height="0.82"/>
		<rect x="3.07" y="2.32" transform="matrix(0.9542 -0.299 0.299 0.9542 -0.5803 1.2422)" class="st0" width="1.4" height="0.4"/>
	</g>
	<path class="st2" d="M4.42,9.56L4.42,9.56c-0.11,0-0.19-0.09-0.19-0.19V5.94c0-0.11,0.09-0.19,0.19-0.19h0
		c0.11,0,0.19,0.09,0.19,0.19v3.42C4.62,9.47,4.53,9.56,4.42,9.56z"/>
	<path class="st2" d="M3.59,9.55L3.59,9.55c-0.11,0.01-0.2-0.07-0.21-0.18l-0.3-3.41c-0.01-0.11,0.07-0.2,0.18-0.21h0
		c0.11-0.01,0.2,0.07,0.21,0.18l0.3,3.41C3.78,9.45,3.7,9.54,3.59,9.55z"/>
	<path class="st2" d="M5.21,9.55L5.21,9.55c0.11,0.01,0.2-0.07,0.21-0.18l0.3-3.41c0.01-0.11-0.07-0.2-0.18-0.21h0
		c-0.11-0.01-0.2,0.07-0.21,0.18l-0.3,3.41C5.03,9.45,5.11,9.54,5.21,9.55z"/>
</g>
<g id="Layer_2">
</g>
</svg>
