<?xml version="1.0" encoding="utf-8"?>
<!-- Generator: Adobe Illustrator 24.0.2, SVG Export Plug-In . SVG Version: 6.00 Build 0)  -->
<svg version="1.1" xmlns="http://www.w3.org/2000/svg" xmlns:xlink="http://www.w3.org/1999/xlink" x="0px" y="0px"
	 viewBox="0 0 28.62 29.85" style="enable-background:new 0 0 28.62 29.85;" xml:space="preserve">
<style type="text/css">
	.st0{fill:#EDEDED;stroke:#000000;stroke-width:0.5;stroke-miterlimit:10;}
	.st1{stroke:#000000;stroke-width:1.1029;stroke-miterlimit:10;}
	.st2{stroke:#FFFFFF;stroke-width:0.75;stroke-miterlimit:10;}
</style>
<g id="Layer_1">
</g>
<g id="Layer_2">
	<g>
		<path class="st0" d="M21.86,27H7.38c-2,0-3.64-1.64-3.64-3.64V6.9c0-2,1.64-3.64,3.64-3.64h14.47c2,0,3.64,1.64,3.64,3.64v16.46
			C25.5,25.36,23.86,27,21.86,27z"/>
		<path class="st1" d="M10.8,11.81 M18.44,11.81h0.39c1.37,0,2.49,0.92,2.49,2.05v4.21c0,1.13-1.11,2.05-2.49,2.05h-8.43
			c-1.37,0-2.49-0.92-2.49-2.05v-4.21c0-1.13,1.11-2.05,2.49-2.05h0.39l0-0.53c0-0.62,0.61-1.12,1.36-1.12h4.91
			c0.75,0,1.36,0.5,1.36,1.12L18.44,11.81z"/>
		<circle class="st2" cx="14.62" cy="15.96" r="2.32"/>
	</g>
</g>
</svg>
