<?xml version="1.0" encoding="utf-8"?>
<!-- Generator: Adobe Illustrator 19.1.0, SVG Export Plug-In . SVG Version: 6.00 Build 0)  -->
<svg version="1.1" id="Layer_1" xmlns="http://www.w3.org/2000/svg" xmlns:xlink="http://www.w3.org/1999/xlink" x="0px" y="0px"
	 viewBox="0 0 378 248.6" style="enable-background:new 0 0 378 248.6;" xml:space="preserve">
<style type="text/css">
	.Arched_x0020_Green{fill:url(#SVGID_1_);stroke:#FFFFFF;stroke-width:0.25;stroke-miterlimit:1;}
	.st0{fill:#A3B83B;}
	.st1{fill:#58595B;}
</style>
<linearGradient id="SVGID_1_" gradientUnits="userSpaceOnUse" x1="-101.6003" y1="841.8896" x2="-100.8932" y2="841.1825">
	<stop  offset="0" style="stop-color:#20AC4B"/>
	<stop  offset="0.9831" style="stop-color:#19361A"/>
</linearGradient>
<path class="st0" d="M114.5,62.8l0.4-1L18.6,88.4L76.1,139c0,0-8.6-16-11.3-21.5c-2.3-4.7-6.9-16.2-6.2-21.4
	c1.6-10.7,9.5-13.5,13.8-16.2c4.7-3,13.5-6.6,19-9.3C94.8,69.1,108.6,64.8,114.5,62.8z"/>
<path class="st0" d="M177.2,44.1l95.9-26.4l-20.5,52.8c0,0-2.2-13.1-3.7-17.1c-1.6-4.3-6.2-10.2-10.4-12c-5.6-2.5-17.9-3.2-29.5-1.7
	"/>
<path class="st0" d="M108.3,166.9l75.4,65.4l33-76.9h-1.3c0,0-10,17.5-20.6,22.4c-4.9,2.3-17.6,7.3-24.8,7.7
	c-12.3,0.7-24.4-1.9-32.4-4.3c-7.3-2.2-28.4-15-28.4-15L108.3,166.9z"/>
<g>
	<path class="st1" d="M100.6,131.7L82.9,94.8h8.3l10,22.1c1.1,2.4,2.1,4.9,3,7.4c0.7-1.9,1.7-4.3,2.9-7l10.3-22.5h8.1l-17.6,36.9
		H100.6z"/>
	<path class="st1" d="M132.5,88v-7.2h7.9V88H132.5z M132.5,131.7V94.8h7.9v36.9H132.5z"/>
	<path class="st1" d="M152.3,131.7V94.8h7.1v5.6c1.8-2.6,3.5-4.3,5-5.2s3.2-1.2,5.1-1.2c2.7,0,5.4,0.7,8.1,2l-2.7,5.8
		c-1.9-0.9-3.9-1.4-5.8-1.4c-1.7,0-3.3,0.4-4.6,1.2c-1.4,0.8-2.4,2-2.9,3.4c-0.9,2.2-1.3,4.7-1.3,7.3v19.3H152.3z"/>
	<path class="st1" d="M182.3,88v-7.2h7.9V88H182.3z M182.3,131.7V94.8h7.9v36.9H182.3z"/>
	<path class="st1" d="M232.4,131.7v-4.7c-3,3.7-7.3,5.5-13,5.5c-3.7,0-7.1-0.8-10.2-2.4s-5.5-3.9-7.2-6.8c-1.7-2.9-2.6-6.2-2.6-10
		c0-3.7,0.8-7,2.3-10c1.5-3,3.9-5.3,7-6.9c3.1-1.6,6.6-2.4,10.4-2.4c2.8,0,5.3,0.5,7.5,1.4s4,2.2,5.3,3.7V80.8h7.8v50.9H232.4z
		 M207.5,113.3c0,4.7,1.3,8.2,3.8,10.6c2.5,2.3,5.5,3.5,8.9,3.5c3.4,0,6.4-1.1,8.8-3.3c2.4-2.2,3.6-5.6,3.6-10.2
		c0-5-1.2-8.7-3.7-11.1s-5.5-3.5-9.1-3.5c-3.5,0-6.4,1.1-8.8,3.4C208.7,104.9,207.5,108.4,207.5,113.3z"/>
	<path class="st1" d="M252.2,88v-7.2h7.9V88H252.2z M252.2,131.7V94.8h7.9v36.9H252.2z"/>
	<path class="st1" d="M302.4,127.2c-2.9,2-5.7,3.4-8.4,4.2c-2.7,0.8-5.6,1.2-8.7,1.2c-5.1,0-9-1-11.8-3c-2.7-2-4.1-4.5-4.1-7.6
		c0-1.8,0.5-3.5,1.6-4.9s2.4-2.7,4.1-3.6c1.7-0.9,3.6-1.6,5.7-2c1.5-0.3,3.9-0.6,7-0.9c6.4-0.6,11.1-1.3,14.1-2.2c0-0.9,0-1.4,0-1.6
		c0-2.5-0.7-4.3-2.2-5.4c-2-1.4-5-2.1-9-2.1c-3.7,0-6.4,0.5-8.2,1.5c-1.8,1-3.1,2.9-3.9,5.5l-7.7-0.8c0.7-2.6,1.9-4.7,3.5-6.3
		c1.6-1.6,3.9-2.8,7-3.7c3-0.9,6.6-1.3,10.6-1.3c4,0,7.2,0.4,9.7,1.1c2.5,0.7,4.3,1.7,5.5,2.8c1.2,1.1,2,2.5,2.5,4.3
		c0.3,1.1,0.4,3,0.4,5.8v8.3c0,5.8,0.2,9.5,0.5,11c0.3,1.5,1,3,2,4.4H304C303.2,130.4,302.6,128.9,302.4,127.2z M301.8,113.2
		c-2.9,0.9-7.2,1.7-12.9,2.4c-3.2,0.4-5.5,0.8-6.9,1.2c-1.3,0.5-2.4,1.1-3.1,2c-0.7,0.9-1.1,1.9-1.1,3c0,1.7,0.8,3.1,2.4,4.2
		c1.6,1.1,3.9,1.7,7,1.7c3,0,5.7-0.5,8.1-1.6s4.1-2.5,5.2-4.3c0.8-1.4,1.3-3.5,1.3-6.2V113.2z"/>
	<path class="st1" d="M322,131.7V94.8h7.1v5.2c3.4-4,8.4-6.1,14.8-6.1c2.8,0,5.4,0.4,7.7,1.2c2.4,0.8,4.1,1.8,5.3,3.1
		c1.2,1.3,2,2.8,2.5,4.6c0.3,1.2,0.4,3.2,0.4,6.1v22.7h-7.9v-22.4c0-2.5-0.3-4.4-0.9-5.7c-0.6-1.3-1.7-2.3-3.3-3
		c-1.6-0.8-3.4-1.1-5.5-1.1c-3.4,0-6.3,0.8-8.7,2.5c-2.4,1.7-3.7,4.9-3.7,9.6v20.1H322z"/>
</g>
<g>
	<path class="st1" d="M236.7,158.8l3.7-0.4c0.2,1.1,0.8,1.9,1.7,2.5c0.9,0.6,2.3,0.9,4,0.9c1.7,0,3-0.3,3.8-0.8
		c0.8-0.5,1.2-1.1,1.2-1.8c0-0.6-0.4-1.1-1.1-1.4c-0.5-0.2-1.8-0.5-3.8-0.9c-2.7-0.5-4.6-0.9-5.7-1.3s-1.9-0.9-2.4-1.5
		c-0.5-0.6-0.8-1.4-0.8-2.1c0-0.7,0.2-1.4,0.7-2c0.5-0.6,1.1-1.1,1.8-1.5c0.6-0.3,1.4-0.6,2.4-0.8c1-0.2,2.1-0.3,3.2-0.3
		c1.7,0,3.3,0.2,4.6,0.5c1.3,0.4,2.3,0.8,2.9,1.5c0.6,0.6,1.1,1.4,1.3,2.5l-3.7,0.4c-0.2-0.8-0.6-1.5-1.4-1.9
		c-0.8-0.5-1.9-0.7-3.4-0.7c-1.7,0-2.9,0.2-3.7,0.6c-0.7,0.4-1.1,0.9-1.1,1.4c0,0.4,0.2,0.7,0.5,0.9c0.3,0.3,0.8,0.5,1.4,0.7
		c0.4,0.1,1.5,0.3,3.3,0.7c2.6,0.5,4.5,0.9,5.5,1.3s1.9,0.8,2.5,1.4c0.6,0.6,0.9,1.4,0.9,2.3c0,0.9-0.4,1.7-1.1,2.5
		s-1.8,1.4-3.2,1.8c-1.4,0.4-2.9,0.7-4.7,0.7c-2.9,0-5.1-0.4-6.6-1.3C238,161.8,237.1,160.5,236.7,158.8z"/>
	<path class="st1" d="M265.7,155.6c0-2.9,1.1-5.1,3.4-6.6c1.9-1.2,4.2-1.8,6.9-1.8c3,0,5.5,0.7,7.4,2.2c1.9,1.4,2.9,3.4,2.9,5.9
		c0,2-0.4,3.7-1.3,4.8c-0.9,1.2-2.1,2.1-3.7,2.7c-1.6,0.6-3.4,1-5.3,1c-3.1,0-5.6-0.7-7.5-2.1C266.7,160.4,265.7,158.3,265.7,155.6z
		 M269.6,155.6c0,2,0.6,3.6,1.9,4.6s2.8,1.5,4.7,1.5c1.9,0,3.4-0.5,4.6-1.5c1.2-1,1.9-2.6,1.9-4.7c0-2-0.6-3.5-1.9-4.5
		s-2.8-1.5-4.6-1.5c-1.9,0-3.4,0.5-4.7,1.5S269.6,153.6,269.6,155.6z"/>
	<path class="st1" d="M298.4,163.6v-22h3.7v22H298.4z"/>
	<path class="st1" d="M330.1,161.6c-1.4,0.8-2.7,1.4-4,1.8s-2.7,0.5-4.1,0.5c-2.4,0-4.3-0.4-5.6-1.3s-2-1.9-2-3.3
		c0-0.8,0.2-1.5,0.7-2.1c0.5-0.6,1.1-1.2,1.9-1.6c0.8-0.4,1.7-0.7,2.7-0.9c0.7-0.1,1.8-0.3,3.3-0.4c3-0.3,5.3-0.6,6.7-0.9
		c0-0.4,0-0.6,0-0.7c0-1.1-0.4-1.9-1.1-2.3c-1-0.6-2.4-0.9-4.3-0.9c-1.8,0-3.1,0.2-3.9,0.7c-0.8,0.4-1.5,1.2-1.9,2.4l-3.7-0.4
		c0.3-1.1,0.9-2,1.6-2.7c0.8-0.7,1.9-1.2,3.3-1.6c1.4-0.4,3.1-0.6,5-0.6c1.9,0,3.4,0.2,4.6,0.5s2,0.7,2.6,1.2s0.9,1.1,1.2,1.8
		c0.1,0.5,0.2,1.3,0.2,2.5v3.6c0,2.5,0.1,4.1,0.2,4.8c0.2,0.7,0.5,1.3,0.9,1.9h-3.9C330.4,163,330.2,162.4,330.1,161.6z
		 M329.7,155.6c-1.4,0.4-3.4,0.7-6.1,1c-1.5,0.2-2.6,0.3-3.3,0.5c-0.6,0.2-1.1,0.5-1.5,0.9c-0.3,0.4-0.5,0.8-0.5,1.3
		c0,0.7,0.4,1.3,1.1,1.8c0.8,0.5,1.9,0.7,3.3,0.7c1.4,0,2.7-0.2,3.8-0.7c1.1-0.5,1.9-1.1,2.5-1.9c0.4-0.6,0.6-1.5,0.6-2.7V155.6z"/>
	<path class="st1" d="M347,163.6v-15.9h3.4v2.4c0.9-1.1,1.7-1.9,2.4-2.2c0.7-0.4,1.5-0.5,2.4-0.5c1.3,0,2.5,0.3,3.8,0.9l-1.3,2.5
		c-0.9-0.4-1.8-0.6-2.7-0.6c-0.8,0-1.6,0.2-2.2,0.5c-0.7,0.4-1.1,0.8-1.4,1.5c-0.4,1-0.6,2-0.6,3.1v8.3H347z"/>
</g>
</svg>
